# xmcd
#
# Track frame offsets: 
#        150
#        16096
#        42270
#        57751
#        71844
#        101844
#        124869
#        139811
#        158568
#        177677
#        193260
#        203397
#        218129
#        230549
#        246859
#
# Disc length: 3501 seconds
#
# Revision: 0
# Processed by: cddbd v1.5.2PL0 Copyright (c) Steve Scherf et al.
# Submitted via: ExactAudioCopy v1.3
#
DISCID=d80dab0f
DTITLE=Big Bone Daddy - Got It
DYEAR=2020
DGENRE=Blues Rock
TTITLE0=All Got To Say
TTITLE1=Back 'Em Up
TTITLE2=Let's Go Back
TTITLE3=Down Low
TTITLE4=Let It Bleed
TTITLE5=All My Time
TTITLE6=It Hurts Me Too
TTITLE7=Tore Down
TTITLE8=Promised Land
TTITLE9=Knock Knock
TTITLE10=Don't You Lie To Me
TTITLE11=Got It
TTITLE12=Pretty Baby
TTITLE13=Come To Me
TTITLE14=Ole Hound Dog
EXTD=
EXTT0=
EXTT1=
EXTT2=
EXTT3=
EXTT4=
EXTT5=
EXTT6=
EXTT7=
EXTT8=
EXTT9=
EXTT10=
EXTT11=
EXTT12=
EXTT13=
EXTT14=
PLAYORDER=
